<svg width="16" height="24" viewBox="0 0 16 24" fill="none" xmlns="http://www.w3.org/2000/svg">
<path d="M13.171 2.83214C12.0664 0.951012 10.2429 0 7.7421 0C5.59557 0 3.75122 0.768125 2.25073 2.27825C0.760664 3.78837 0 5.85238 0 8.40758C0 10.9001 0.750244 12.9484 2.2351 14.4899C3.71996 16.0366 5.59557 16.8152 7.80462 16.8152C9.00293 16.8152 10.1231 16.5069 11.1338 15.8955C11.9883 15.3782 12.6708 14.6884 13.1657 13.8367V21.5441H1.66721V24H16V16.0784V13.1731V0.449379H13.171V2.83214ZM11.8737 12.6662C10.889 13.7061 9.61771 14.2391 8.09639 14.2391C6.57506 14.2391 5.31423 13.7113 4.33474 12.6715C3.35526 11.6264 2.86031 10.1946 2.86031 8.4128C2.86031 6.63096 3.35526 5.18877 4.33474 4.13847C5.30902 3.08818 6.57506 2.55519 8.09639 2.55519C9.61771 2.55519 10.8838 3.08818 11.8737 4.1437C12.8636 5.19922 13.3637 6.63619 13.3637 8.41803C13.3637 10.1894 12.8636 11.6264 11.8737 12.6662Z" fill="#111111"/>
</svg>
