<svg width="13" height="18" viewBox="0 0 13 18" fill="none" xmlns="http://www.w3.org/2000/svg">
<path fill-rule="evenodd" clip-rule="evenodd" d="M9.65072 1.29051V2.32333C8.86487 1.4399 7.74293 1 6.33061 1C4.85584 1 3.58116 1.52257 2.54931 2.54471C1.51635 3.5751 1 4.97541 1 6.67763C1 8.34039 1.51007 9.72869 2.53684 10.7779C3.56038 11.8272 4.85704 12.3553 6.37168 12.3553C7.20246 12.3553 7.98227 12.1443 8.68522 11.7258C9.05149 11.5076 9.37326 11.2439 9.64729 10.9368V14.9275H2.09503V17H12V1.29051H9.65072ZM9.77733 6.68438C9.77733 7.78313 9.46315 8.64652 8.86661 9.26329C8.26899 9.88443 7.49933 10.205 6.56331 10.205C5.62718 10.205 4.86525 9.88823 4.27142 9.26786C3.68085 8.64756 3.36981 7.78691 3.36981 6.681C3.36981 5.57472 3.68151 4.70661 4.27245 4.08293C4.8627 3.45664 5.62745 3.13669 6.56331 3.13669C7.4987 3.13669 8.2642 3.45638 8.86534 4.08727C9.46326 4.71478 9.77733 5.57916 9.77733 6.68438Z" fill="#111111"/>
</svg>
